<?xml version="1.0" encoding="iso-8859-1"?>
<!-- Generator: Adobe Illustrator 19.0.0, SVG Export Plug-In . SVG Version: 6.00 Build 0)  -->
<svg version="1.1" id="Capa_1" xmlns="http://www.w3.org/2000/svg" xmlns:xlink="http://www.w3.org/1999/xlink" x="0px" y="0px"
	 viewBox="0 0 512 512" style="enable-background:new 0 0 512 512;" xml:space="preserve">
<g>
	<g>
		<path d="M437.319,30.073h-60c-5.7,0-10.8,2.999-13.2,7.8l88.2,75.3v-68.1h0C452.319,36.672,445.72,30.073,437.319,30.073z"/>
	</g>
</g>
<g>
	<g>
		<path d="M198,360v152h120V360H198z M273,420c-8.284,0-15-6.716-15-15s6.716-15,15-15s15,6.716,15,15S281.284,420,273,420z"/>
	</g>
</g>
<g>
	<g>
		<rect x="227" y="210" width="60" height="60"/>
	</g>
</g>
<g>
	<g>
		<path d="M501.524,199.89L276.831,7.28C271.352,2.578,264.409,0,257.319,0c-7.09,0-14.033,2.578-19.512,7.31L10.473,199.792
			c-12.432,10.655-14.019,29.313-3.564,41.915c10.694,12.891,29.875,14.522,42.593,3.622L257.319,69.58l205.158,175.861
			c14.19,12.164,35.929,8.53,45.392-7.588C515.222,225.331,512.549,209.341,501.524,199.89z"/>
	</g>
</g>
<g>
	<g>
		<path d="M257,109.014L59.247,276.147V497c0,8.401,6.599,15,15,15H167V345c0-8.291,6.709-15,15-15h150c8.291,0,15,6.709,15,15v167
			h90c8.401,0,15-6.599,15-15V276.178L257,109.014z M317,285c0,8.291-6.709,15-15,15h-90c-8.291,0-15-6.709-15-15v-90
			c0-8.291,6.709-15,15-15h90c8.291,0,15,6.709,15,15V285z"/>
	</g>
</g>
<g>
</g>
<g>
</g>
<g>
</g>
<g>
</g>
<g>
</g>
<g>
</g>
<g>
</g>
<g>
</g>
<g>
</g>
<g>
</g>
<g>
</g>
<g>
</g>
<g>
</g>
<g>
</g>
<g>
</g>
</svg>
